<?xml version="1.0" encoding="UTF-8" standalone="no"?>
<!-- Created with Inkscape (http://www.inkscape.org/) -->
<svg
   xmlns:dc="http://purl.org/dc/elements/1.1/"
   xmlns:cc="http://web.resource.org/cc/"
   xmlns:rdf="http://www.w3.org/1999/02/22-rdf-syntax-ns#"
   xmlns:svg="http://www.w3.org/2000/svg"
   xmlns="http://www.w3.org/2000/svg"
   xmlns:sodipodi="http://sodipodi.sourceforge.net/DTD/sodipodi-0.dtd"
   xmlns:inkscape="http://www.inkscape.org/namespaces/inkscape"
   width="744.09448819"
   height="1052.3622047"
   id="svg2"
   sodipodi:version="0.32"
   inkscape:version="0.45"
   sodipodi:docbase="/home/mlanza"
   sodipodi:docname="daybreak-church.svg"
   inkscape:output_extension="org.inkscape.output.svg.inkscape"
   sodipodi:modified="true">
  <defs
     id="defs4" />
  <sodipodi:namedview
     id="base"
     pagecolor="#ffffff"
     bordercolor="#666666"
     borderopacity="1.0"
     gridtolerance="10000"
     guidetolerance="10"
     objecttolerance="10"
     inkscape:pageopacity="0.0"
     inkscape:pageshadow="2"
     inkscape:zoom="1.3062462"
     inkscape:cx="375"
     inkscape:cy="944.07467"
     inkscape:document-units="px"
     inkscape:current-layer="layer2"
     inkscape:window-width="1280"
     inkscape:window-height="949"
     inkscape:window-x="0"
     inkscape:window-y="25" />
  <metadata
     id="metadata7">
    <rdf:RDF>
      <cc:Work
         rdf:about="">
        <dc:format>image/svg+xml</dc:format>
        <dc:type
           rdf:resource="http://purl.org/dc/dcmitype/StillImage" />
      </cc:Work>
    </rdf:RDF>
  </metadata>
  <g
     inkscape:groupmode="layer"
     id="layer2"
     inkscape:label="background">
    <rect
       style="opacity:1;fill:#000000;fill-opacity:0.84782606;stroke:none;stroke-opacity:1"
       id="rect2349"
       width="744.88336"
       height="282.4888"
       x="-745.18127"
       y="-332.93018"
       ry="0.76555246"
       transform="matrix(-0.9999988,-1.5517386e-3,1.5517386e-3,-0.9999988,0,0)" />
  </g>
  <g
     inkscape:label="daybreak church"
     inkscape:groupmode="layer"
     id="layer1"
     style="display:inline">
    <path
       style="font-size:76.49799347px;font-style:normal;font-variant:normal;font-weight:bold;font-stretch:normal;text-align:center;line-height:80.00000119%;writing-mode:lr-tb;text-anchor:middle;fill:#ffe680;fill-opacity:1;stroke:none;stroke-width:1px;stroke-linecap:butt;stroke-linejoin:miter;stroke-opacity:1;font-family:SUMMERCAMP"
       d="M 224.5,113.5625 L 224.5,128.5625 C 224.5,132.66032 225.59105,136.20201 227.8125,139.1875 C 230.07837,142.11452 232.76495,143.59378 235.875,143.59375 L 248.75,143.59375 L 248.75,152.375 L 265.9375,154.9375 L 265.9375,143.59375 L 278.8125,143.59375 C 281.92247,143.59378 284.59098,142.11452 286.8125,139.1875 C 289.07831,136.20201 290.21869,132.66033 290.21875,128.5625 L 290.21875,124.84375 C 286.67565,121.48706 282.2032,117.24554 278.3125,113.5625 L 273.0625,113.5625 L 273.0625,134.1875 C 273.06245,135.18271 272.79628,136.08277 272.21875,136.84375 C 271.68555,137.54626 271.01842,137.87503 270.21875,137.875 L 244.5,137.875 C 243.74469,137.87503 243.07756,137.54627 242.5,136.84375 C 241.92241,136.08277 241.62498,135.18271 241.625,134.1875 L 241.625,113.5625 L 224.5,113.5625 z M 90.53125,122.34375 L 90.53125,128.625 L 107.65625,131.1875 L 107.65625,127.96875 L 136.25,127.96875 C 137.04968,127.9688 137.71681,128.33278 138.25,129.09375 C 138.82753,129.85482 139.09369,130.75487 139.09375,131.75 L 139.09375,135.90625 L 156.21875,138.46875 L 156.21875,137.375 C 156.21868,133.21872 155.10956,129.67704 152.84375,126.75 C 150.62224,123.82307 147.95372,122.34381 144.84375,122.34375 L 90.53125,122.34375 z M 469.09375,123.21875 L 460.96875,128.84375 L 473.8125,128.84375 L 480.46875,123.21875 L 469.09375,123.21875 z M 292.8125,127.28125 L 292.8125,180.28125 L 297.21875,180.28125 L 297.21875,180.5625 L 347.125,180.5625 C 347.67163,180.5625 348.20355,180.53495 348.71875,180.46875 C 346.58035,178.4185 343.74043,175.71052 340.96875,173.0625 C 340.84431,173.32507 340.70966,173.57742 340.53125,173.8125 C 339.99805,174.51498 339.33093,174.84375 338.53125,174.84375 L 309.9375,174.84375 L 309.9375,159.84375 L 327.09375,159.84375 C 325.11684,157.96207 323.29116,156.21417 321.09375,154.125 L 309.9375,154.125 L 309.9375,143.53125 C 304.68304,138.54336 299.14557,133.28255 292.8125,127.28125 z M 297.21875,180.5625 L 292.8125,180.5625 L 292.8125,180.28125 L 280.09375,180.28125 L 280.09375,188.59375 L 297.21875,190 L 297.21875,180.5625 z M 172.3125,132 C 169.15803,132.00006 166.45338,133.51453 164.1875,136.5 C 163.4933,137.4147 162.91476,138.37723 162.4375,139.40625 L 178.03125,141.75 L 178.03125,141.40625 C 178.03123,140.41112 178.31058,139.54232 178.84375,138.78125 C 179.42131,138.02028 180.08844,137.62505 180.84375,137.625 L 206.5625,137.625 C 207.31775,137.62505 207.98487,138.02029 208.5625,138.78125 C 209.14003,139.54232 209.43745,140.41112 209.4375,141.40625 L 209.4375,146.46875 L 226.5625,149.03125 L 226.5625,147.03125 C 226.56243,142.93351 225.42206,139.42704 223.15625,136.5 C 220.93474,133.51453 218.24816,132.00005 215.09375,132 L 172.3125,132 z M 449.25,136.96875 L 432.125,148.8125 L 432.125,164.125 L 449.25,149.625 L 449.25,136.96875 z M 632.03125,140.71875 L 614.03125,143.5 L 612.28125,149.46875 C 612.01464,150.5225 611.48717,151.42651 610.6875,152.1875 C 609.93217,152.89 609.14341,153.25003 608.34375,153.25 L 588.5625,153.25 L 588.5625,147.46875 L 571.4375,150.125 L 571.4375,173.5625 C 577.12152,171.17016 582.56605,168.86796 588.5625,166.34375 L 588.5625,158.96875 L 596.34375,158.96875 L 599.21875,161.875 C 609.99316,157.3391 617.23017,154.26862 629,149.3125 C 629.83502,147.66014 630.54437,145.85885 631.09375,143.875 L 632.03125,140.71875 z M 567.5,150.75 L 550.375,153.40625 L 550.375,163.875 L 518.96875,163.875 L 518.96875,158.28125 L 501.78125,160.96875 L 501.78125,188.46875 C 502.40997,188.9615 503.02291,189.54438 503.59375,190.21875 L 518.90625,190.21875 L 518.90625,169.5 L 550.375,169.5 L 550.375,182.4375 C 555.68624,180.20249 561.88661,177.58128 567.5,175.21875 L 567.5,150.75 z M 503.59375,190.21875 L 501.78125,190.21875 L 501.78125,188.46875 C 500.07554,187.13194 498.16304,186.43754 496.03125,186.4375 L 453.3125,186.4375 C 453.22363,186.43756 453.1875,186.43755 453.1875,186.4375 C 450.03303,186.73026 447.34643,188.31911 445.125,191.1875 C 442.90355,193.99746 441.78125,197.42956 441.78125,201.46875 L 441.78125,205.6875 C 442.0633,205.60951 458.85171,200.98383 458.90625,200.96875 L 458.90625,195.84375 C 458.90623,194.84862 459.20365,193.97982 459.78125,193.21875 C 460.35881,192.45778 461.02594,192.06255 461.78125,192.0625 L 487.5,192.0625 C 488.25525,192.06255 488.90432,192.45779 489.4375,193.21875 C 490.01503,193.97982 490.31247,194.84862 490.3125,195.84375 L 490.3125,205.21875 L 496.25,205.21875 C 499.13901,204.00372 504.4621,201.76466 507.46875,200.5 C 507.30273,196.76178 506.18044,193.53939 504.09375,190.84375 C 503.92695,190.62399 503.76581,190.42201 503.59375,190.21875 z M 428.125,151.59375 L 408.59375,165.125 L 416.78125,165.125 C 419.89122,165.12502 422.55974,163.64577 424.78125,160.71875 C 426.75192,158.12214 427.86678,155.07722 428.125,151.59375 z M 265.9375,155.1875 L 248.75,155.84375 L 248.75,169.9375 L 265.9375,169.9375 L 265.9375,155.1875 z M 226.5625,156.71875 L 209.4375,157.40625 L 209.4375,162.125 L 178.03125,162.125 L 178.03125,158.625 L 160.84375,159.3125 L 160.84375,178.71875 L 177.96875,180.125 L 177.96875,167.75 L 209.4375,167.75 L 209.4375,182.71875 L 226.5625,184.15625 L 226.5625,156.71875 z M 156.21875,159.5 L 139.09375,160.15625 L 139.09375,169.3125 C 139.0937,170.36622 138.82754,171.27025 138.25,172.03125 C 137.7168,172.73373 137.04968,173.09375 136.25,173.09375 L 107.65625,173.09375 L 107.65625,161.40625 L 90.53125,162.0625 L 90.53125,172.875 L 149.15625,177.75 C 150.50404,177.01434 151.72285,175.88311 152.84375,174.40625 C 155.10956,171.42073 156.21869,167.87509 156.21875,163.71875 L 156.21875,159.5 z M 406.5,166.59375 L 394.53125,174.84375 L 406.90625,185.84375 L 428.1875,185.84375 L 406.5,166.59375 z M 449.25,169.125 L 432.125,171.78125 L 432.125,179.6875 L 497.84375,179.6875 L 497.84375,173.96875 L 449.25,173.96875 L 449.25,169.125 z M 242.90625,180.28125 C 239.79621,180.28131 237.10962,181.76057 234.84375,184.6875 C 234.81209,184.72921 234.78121,184.77054 234.75,184.8125 L 248.625,185.96875 L 248.625,180.28125 L 242.90625,180.28125 z M 379.59375,185.1875 L 378.65625,185.84375 L 379.59375,185.84375 L 379.59375,185.1875 z M 372.8125,190.75 L 372.8125,224.75 C 375.8042,223.92271 387.88656,220.59839 389.9375,220.03125 L 389.9375,196.46875 L 418.53125,196.46875 C 419.33093,196.4688 419.99805,196.83279 420.53125,197.59375 C 421.10878,198.29628 421.37495,199.16508 421.375,200.21875 L 421.375,211.34375 C 422.16131,211.12631 438.18523,206.68943 438.53125,206.59375 L 438.53125,205.84375 C 438.53118,201.68747 437.3908,198.14578 435.125,195.21875 C 432.90349,192.23328 430.23496,190.75006 427.125,190.75 L 372.8125,190.75 z M 297.21875,192.9375 L 280.09375,195.21875 L 280.09375,201.90625 L 297.21875,199 L 297.21875,192.9375 z M 301.8125,197.78125 L 301.8125,198.21875 L 304.3125,197.78125 L 301.8125,197.78125 z M 318.59375,197.78125 L 301.8125,204.25 L 301.8125,239.21875 C 301.8125,241.00118 302.02652,242.66241 302.4375,244.21875 C 310.84004,241.89522 312.08772,241.5504 318.9375,239.65625 L 318.9375,197.78125 L 318.59375,197.78125 z M 350.34375,197.78125 L 350.34375,230.96875 C 354.85619,229.72094 364.20068,227.13974 367.53125,226.21875 L 367.53125,197.78125 L 350.34375,197.78125 z M 248.625,199.40625 L 231.5,201.6875 L 231.5,210.21875 L 248.625,207.28125 L 248.625,199.40625 z M 229.75,201.90625 L 213.6875,204.0625 L 213.6875,212.25 L 219.5625,212.25 L 230.875,210.3125 L 230.875,208.5 C 230.87496,206.09449 230.50227,203.90001 229.75,201.90625 z M 458.90625,205.9375 L 441.78125,217 L 441.78125,228.09375 C 447.76746,225.5793 452.03338,223.79461 458.90625,220.90625 L 458.90625,205.9375 z M 297.21875,206 L 271.21875,216.03125 L 280.09375,216.03125 L 280.09375,236.65625 L 285.75,236.65625 C 288.9044,236.65625 291.591,235.20825 293.8125,232.28125 C 296.07831,229.35427 297.21868,225.81259 297.21875,221.65625 L 297.21875,206 z M 182.3125,208.21875 L 165.1875,210.5 L 165.1875,221.53125 L 182.3125,218.625 L 182.3125,208.21875 z M 436.1875,220.625 L 426.96875,226.5625 L 427.125,226.5625 C 430.23497,226.56252 432.90348,225.1145 435.125,222.1875 C 435.50665,221.68463 435.86978,221.16137 436.1875,220.625 z M 248.625,224.71875 L 231.5,231.34375 L 231.5,236.65625 L 248.625,236.65625 L 248.625,224.71875 z M 420.15625,230.96875 L 407.84375,238.9375 L 410.4375,241.25 C 414.25002,239.65043 420.51524,237.01771 424.875,235.1875 L 420.15625,230.96875 z M 217.4375,236.75 L 213.75,238.15625 L 213.75,240.4375 C 213.74995,241.49122 213.48377,242.42648 212.90625,243.1875 C 212.32863,243.88998 211.6615,244.21875 210.90625,244.21875 L 198.03125,244.21875 L 183.1875,249.9375 L 219.4375,249.9375 C 222.32533,249.9375 224.8361,248.67346 226.96875,246.15625 C 229.14571,243.58051 230.3945,240.43801 230.75,236.75 L 217.4375,236.75 z "
       id="text2160" />
    <path
       style="font-size:76.49799347px;font-style:normal;font-variant:normal;font-weight:bold;font-stretch:normal;text-align:center;line-height:80.00000119%;writing-mode:lr-tb;text-anchor:middle;fill:#ffcc00;fill-opacity:1;stroke:none;stroke-width:1px;stroke-linecap:butt;stroke-linejoin:miter;stroke-opacity:1;font-family:SUMMERCAMP"
       d="M 88.234593,130.86815 L 88.234593,159.81934 L 105.35959,159.25115 L 105.35959,133.08684 L 88.234593,130.86815 z M 136.79709,137.17248 L 136.79709,158.16886 L 153.92209,157.60065 L 153.92209,139.39116 L 136.79709,137.17248 z M 160.14084,140.20289 C 159.09086,142.16299 158.54709,144.36562 158.54709,146.80484 L 158.54709,157.43831 L 175.73459,156.84305 L 175.73459,142.23216 L 160.14084,140.20289 z M 207.14084,146.3178 L 207.14084,155.78783 L 224.26584,155.19256 L 224.26584,148.5365 L 207.14084,146.3178 z M 246.45334,151.43161 L 246.45334,154.43496 L 263.64084,153.86676 L 263.64084,153.65031 L 246.45334,151.43161 z "
       id="text2202" />
    <path
       style="font-size:76.49799347px;font-style:normal;font-variant:normal;font-weight:bold;font-stretch:normal;text-align:center;line-height:80.00000119%;writing-mode:lr-tb;text-anchor:middle;fill:#ffcc00;fill-opacity:1;stroke:none;stroke-width:1px;stroke-linecap:butt;stroke-linejoin:miter;stroke-opacity:1;font-family:SUMMERCAMP"
       d="M 86.709738,174.32991 L 86.670141,179.42159 L 140.981,179.84395 C 142.52173,179.85593 143.97229,179.5755 145.30046,178.96634 L 86.709738,174.32991 z M 156.98114,179.88797 L 156.91612,188.24905 L 174.0406,188.38222 L 174.09625,181.22707 L 156.98114,179.88797 z M 205.54675,183.69605 L 205.5084,188.62694 L 222.63288,188.76011 L 222.66164,185.06194 L 205.54675,183.69605 z M 230.84452,185.68837 C 228.66632,188.1607 227.55192,191.15393 227.52459,194.66733 L 227.48208,200.13418 L 244.62178,198.31108 L 244.71139,186.78781 L 230.84452,185.68837 z M 276.16168,189.28358 L 276.1175,194.96483 L 293.2572,193.14172 L 293.27679,190.62268 L 276.16168,189.28358 z M 172.60105,192.65902 C 169.44472,192.88554 166.74763,194.22715 164.50712,196.66965 C 162.267,199.06205 161.15309,201.99674 161.12615,205.46054 L 161.11282,207.17563 L 178.25251,205.35253 L 178.28815,200.77002 C 178.29476,199.91664 178.56694,199.14689 179.14959,198.49872 C 179.7322,197.85065 180.40175,197.54371 181.15703,197.54954 L 206.90625,197.74978 C 207.66148,197.7557 208.27684,198.07264 208.80494,198.72934 C 209.37738,199.38649 209.66879,200.16063 209.6622,201.014 L 209.65428,202.03234 L 225.73067,200.30817 C 225.19285,199.05953 224.45381,197.89845 223.50763,196.83369 C 221.3057,194.30644 218.62907,193.017 215.47475,192.99243 L 172.7573,192.66023 C 172.66843,192.65959 172.60103,192.65906 172.60105,192.65902 z "
       id="path2221"
       inkscape:transform-center-x="103.41752"
       inkscape:transform-center-y="14.81556" />
    <path
       style="font-size:76.49799347px;font-style:normal;font-variant:normal;font-weight:bold;font-stretch:normal;text-align:center;line-height:80.00000119%;writing-mode:lr-tb;text-anchor:middle;fill:#ffdd55;fill-opacity:1;stroke:none;stroke-width:1px;stroke-linecap:butt;stroke-linejoin:miter;stroke-opacity:1;font-family:SUMMERCAMP"
       d="M 301.25752,199.00118 L 298.77087,199.46024 L 298.93741,204.69209 L 315.53154,198.5468 L 301.25752,199.00118 z M 294.20102,200.2841 L 277.16494,203.35001 L 277.39706,210.64207 L 245.94425,211.6433 L 245.86054,209.01383 L 228.82533,212.10684 L 229.40866,230.43189 L 246.34205,224.14012 L 246.10216,216.60408 L 268.68447,215.88522 L 294.39431,206.3563 L 294.20102,200.2841 z M 228.20323,212.20805 L 216.94996,214.24867 L 228.25673,213.88875 L 228.20323,212.20805 z M 179.89486,220.96389 L 162.85878,224.02981 L 163.64318,248.67103 L 181.63406,248.09833 L 196.31238,242.66528 L 180.60159,243.1654 L 179.89486,220.96389 z M 211.81694,235.68633 L 211.85577,236.9062 L 215.50257,235.56901 L 211.81694,235.68633 z "
       id="path2227"
       inkscape:transform-center-x="76.33638"
       inkscape:transform-center-y="25.062115" />
    <path
       style="font-size:76.49799347px;font-style:normal;font-variant:normal;font-weight:bold;font-stretch:normal;text-align:center;line-height:80.00000119%;writing-mode:lr-tb;text-anchor:middle;fill:#ffcc00;fill-opacity:1;stroke:none;stroke-width:1px;stroke-linecap:butt;stroke-linejoin:miter;stroke-opacity:1;font-family:SUMMERCAMP"
       d="M 632.82776,149.3125 C 621.05793,154.26862 613.82092,157.3391 603.04651,161.875 L 620.85901,179.6875 L 640.98401,179.6875 L 620.23401,158.96875 L 620.76526,158.96875 C 623.78638,158.96877 626.6307,157.48555 629.29651,154.5 C 630.66919,153.00865 631.83942,151.26827 632.82776,149.3125 z M 592.39026,166.34375 C 586.39381,168.86796 580.94928,171.17016 575.26526,173.5625 L 575.26526,179.6875 L 592.39026,179.6875 L 592.39026,166.34375 z M 571.32776,175.21875 C 565.71437,177.58128 559.514,180.20249 554.20276,182.4375 L 554.20276,190.21875 L 571.32776,190.21875 L 571.32776,175.21875 z M 521.32776,197.875 C 518.21772,197.87506 515.53113,199.32306 513.26526,202.25 C 511.04381,205.17704 509.95277,208.71872 509.95276,212.875 L 509.95276,218.125 C 511.07132,217.91247 524.76579,215.31427 527.07776,214.875 L 527.07776,197.875 L 521.32776,197.875 z M 558.51526,197.875 L 558.51526,208.90625 C 564.13355,207.83878 567.61331,207.18137 575.64026,205.65625 L 575.64026,197.875 L 558.51526,197.875 z M 511.29651,200.5 C 508.28986,201.76466 502.96677,204.00372 500.07776,205.21875 L 511.32776,205.21875 L 511.32776,201.46875 C 511.32775,201.14018 511.31076,200.82089 511.29651,200.5 z M 462.73401,220.90625 C 455.86114,223.79461 451.59522,225.5793 445.60901,228.09375 L 445.60901,242.90625 L 499.85901,242.90625 C 502.26776,242.90625 504.41303,242.00255 506.29651,240.25 L 493.89026,235.125 C 493.74813,235.49856 493.5684,235.83916 493.32776,236.15625 C 492.75014,236.85873 492.083,237.1875 491.32776,237.1875 L 462.73401,237.1875 L 462.73401,220.90625 z M 428.70276,235.1875 C 424.343,237.01771 418.07778,239.65043 414.26526,241.25 L 421.07776,247.3125 L 442.35901,247.3125 L 428.70276,235.1875 z M 509.95276,241.75 L 509.95276,254.25 L 527.07776,254.25 L 527.07776,248.84375 L 509.95276,241.75 z "
       id="path2235" />
    <path
       style="font-size:76.49799347px;font-style:normal;font-variant:normal;font-weight:bold;font-stretch:normal;text-align:center;line-height:80.00000119%;writing-mode:lr-tb;text-anchor:middle;fill:#ffd42a;fill-opacity:1;stroke:none;stroke-width:1px;stroke-linecap:butt;stroke-linejoin:miter;stroke-opacity:1;font-family:SUMMERCAMP"
       d="M 485.82761,123.9843 L 479.17136,128.98858 L 503.20261,128.98858 L 503.20261,123.9843 L 485.82761,123.9843 z M 576.79636,123.9843 L 576.79636,147.92145 L 593.92136,145.55831 L 593.92136,123.9843 L 576.79636,123.9843 z M 625.39011,123.9843 L 619.39011,142.02752 L 637.39011,139.55318 L 642.51511,123.9843 L 625.39011,123.9843 z M 518.60886,133.38123 C 515.45439,133.38128 512.74974,134.70083 510.48386,137.35685 C 508.26241,139.96089 507.14012,143.08043 507.14011,146.72598 L 507.14011,157.56859 L 524.32761,155.17766 L 524.32761,141.7217 C 524.32759,140.83638 524.60693,140.06345 525.14011,139.38637 C 525.71767,138.70937 526.38482,138.35775 527.14011,138.35771 L 552.85886,138.35771 C 553.61411,138.35775 554.28126,138.70938 554.85886,139.38637 C 555.43639,140.06345 555.73381,140.83638 555.73386,141.7217 L 555.73386,150.84061 L 572.85886,148.47748 L 572.85886,146.72598 C 572.85879,143.08043 571.7184,139.96089 569.45261,137.35685 C 567.2311,134.70083 564.54453,133.38127 561.39011,133.38123 L 518.60886,133.38123 z M 454.60886,147.47662 L 437.48386,160.37655 L 437.48386,167.18793 L 454.60886,164.8248 L 454.60886,155.78929 L 503.20261,155.78929 L 503.20261,150.7016 L 454.60886,150.7016 L 454.60886,147.47662 z "
       id="path2259" />
    <path
       style="font-size:76.49799347px;font-style:normal;font-variant:normal;font-weight:bold;font-stretch:normal;text-align:center;line-height:80.00000119%;writing-mode:lr-tb;text-anchor:middle;fill:#d4aa00;fill-opacity:1;stroke:none;stroke-width:1px;stroke-linecap:butt;stroke-linejoin:miter;stroke-opacity:1;font-family:SUMMERCAMP"
       d="M 277.54695,110.50029 C 281.43765,114.18333 285.9101,118.42485 289.4532,121.78154 L 289.4532,110.50029 L 277.54695,110.50029 z M 442.7657,120.15654 C 439.65566,120.1566 436.96907,121.67107 434.7032,124.65654 C 432.48175,127.58358 431.35946,131.09006 431.35945,135.18779 L 431.35945,145.75029 L 448.48445,133.90654 L 448.48445,129.56279 C 448.48443,128.56766 448.78186,127.69886 449.35945,126.93779 C 449.93701,126.17682 450.60412,125.78159 451.35945,125.78154 L 460.2032,125.78154 L 468.3282,120.15654 L 442.7657,120.15654 z M 292.04695,121.03154 L 292.04695,124.21904 C 298.38002,130.22034 303.91749,135.48115 309.17195,140.46904 L 309.17195,126.65654 L 327.98445,126.65654 L 324.92195,121.03154 L 292.04695,121.03154 z M 375.29695,126.21904 L 361.7032,168.21904 L 361.7032,182.78154 L 377.8907,182.78154 L 378.8282,182.12529 L 378.8282,162.06279 L 382.8282,162.06279 L 393.7657,171.78154 L 405.73445,163.53154 L 404.0782,162.06279 L 407.8282,162.06279 L 427.35945,148.53154 C 427.39812,148.00983 427.42194,147.47919 427.42195,146.93779 L 427.42195,141.34404 C 427.42188,137.18776 426.28152,133.64608 424.0157,130.71904 C 421.79419,127.73357 419.12568,126.2191 416.0157,126.21904 L 375.29695,126.21904 z M 378.8282,131.93779 L 407.42195,131.93779 C 408.22163,131.93784 408.88874,132.30183 409.42195,133.06279 C 409.99948,133.76532 410.29689,134.66537 410.29695,135.71904 L 410.29695,152.56279 C 410.2969,153.61654 409.99947,154.52055 409.42195,155.28154 C 408.88875,155.98404 408.22164,156.34407 407.42195,156.34404 L 378.8282,156.34404 L 378.8282,131.93779 z M 340.23445,149.25029 C 340.10688,149.53084 339.9524,149.78553 339.7657,150.03154 C 339.2325,150.73404 338.56538,151.06282 337.7657,151.06279 L 320.3282,151.06279 C 322.52561,153.15196 324.35129,154.89986 326.3282,156.78154 L 337.7657,156.78154 C 338.56538,156.78156 339.23252,157.14555 339.7657,157.90654 C 340.34323,158.60904 340.64067,159.50909 340.6407,160.56279 L 340.6407,168.03154 C 340.64067,168.75976 340.48159,169.41286 340.2032,170.00029 C 342.97488,172.64831 345.8148,175.35629 347.9532,177.40654 C 350.24353,177.11227 352.22221,176.1564 353.8907,174.53154 C 353.90143,174.52162 353.91127,174.51025 353.92195,174.50029 L 340.23445,149.25029 z "
       id="path2267" />
    <path
       style="font-size:76.49799347px;font-style:normal;font-variant:normal;font-weight:bold;font-stretch:normal;text-align:center;line-height:80.00000119%;writing-mode:lr-tb;text-anchor:middle;fill:#d4aa00;fill-opacity:1;stroke:none;stroke-width:1px;stroke-linecap:butt;stroke-linejoin:miter;stroke-opacity:1;font-family:SUMMERCAMP"
       d="M 456.70426,201.95877 C 456.65051,201.9742 440.10396,206.71375 439.82599,206.7936 L 440.35772,216.18357 L 456.93781,206.08308 L 456.70426,201.95877 z M 436.62331,207.72007 C 436.28229,207.81804 420.49025,212.35989 419.7153,212.58253 L 419.98558,217.35532 C 420.03506,218.23 419.81176,218.99463 419.27085,219.65726 C 418.77144,220.26896 418.12221,220.60356 417.3237,220.6464 L 388.77157,222.17927 L 388.73191,221.47891 C 386.71061,222.05962 374.80209,225.46668 371.85363,226.31375 L 372.91416,245.04178 L 390.01423,244.12374 L 389.0389,226.90018 L 393.03308,226.68575 L 407.50076,236.21214 L 419.42078,228.93762 L 414.25215,225.54657 L 426.01625,224.915 L 434.9425,219.49238 C 436.38428,217.21029 437.01485,214.63544 436.85246,211.76658 L 436.62331,207.72007 z M 366.6491,227.81601 C 363.36667,228.75902 354.15711,231.40249 349.70989,232.68014 L 350.36207,244.1971 C 350.41155,245.07174 350.15704,245.83807 349.61613,246.50071 C 349.11673,247.1124 348.48555,247.44602 347.73139,247.48651 L 322.05008,248.86524 C 321.29586,248.90574 320.61278,248.64266 320.00305,248.09052 C 319.39052,247.48982 319.05105,246.75539 319.00152,245.88073 L 318.7577,241.57484 C 312.00691,243.51429 310.77726,243.8674 302.49616,246.24649 C 303.14015,247.93767 304.12982,249.45015 305.47536,250.76977 C 307.87551,253.07787 310.64577,254.16074 313.79564,253.99162 L 356.51463,251.6982 C 359.66444,251.5291 362.27759,250.15721 364.35828,247.60857 C 366.48321,245.05757 367.45547,242.05664 367.26015,238.60668 L 366.6491,227.81601 z "
       id="path2275"
       inkscape:transform-center-x="77.048505"
       inkscape:transform-center-y="26.027556" />
    <path
       style="font-size:76.49799347px;font-style:normal;font-variant:normal;font-weight:bold;font-stretch:normal;text-align:center;line-height:80.00000119%;writing-mode:lr-tb;text-anchor:middle;fill:#ffdd55;fill-opacity:1;stroke:none;stroke-width:1px;stroke-linecap:butt;stroke-linejoin:miter;stroke-opacity:1;font-family:SUMMERCAMP"
       d="M 577.17136,208.71846 C 569.14441,210.07539 565.66465,210.6603 560.04636,211.61005 L 560.04636,228.51475 L 528.60886,228.51475 L 528.60886,216.92058 C 526.29689,217.3114 512.60242,219.62308 511.48386,219.81217 L 511.48386,230.12737 L 512.73386,230.12737 C 512.55367,231.79054 512.132,233.33387 511.48386,234.7428 L 511.48386,240.83183 L 528.60886,247.14329 L 528.60886,233.57504 L 560.04636,233.57504 L 560.04636,251.95334 L 565.73386,251.95334 C 568.88826,251.95334 571.57482,250.63721 573.79636,248.03301 C 576.06217,245.42881 577.17128,242.2777 577.17136,238.57972 L 577.17136,208.71846 z M 511.48386,234.7428 L 511.48386,230.12737 L 495.73386,230.12737 L 495.73386,233.40822 C 495.73383,233.9551 495.62034,234.47212 495.42136,234.93743 L 507.82761,239.49725 C 508.20222,239.18712 508.56756,238.86786 508.92136,238.49631 C 509.9949,237.36619 510.85327,236.11359 511.48386,234.7428 z "
       id="path2291" />
    <path
       style="font-size:76.49799347px;font-style:normal;font-variant:normal;font-weight:bold;font-stretch:normal;text-align:center;line-height:80.00000119%;writing-mode:lr-tb;text-anchor:middle;fill:#ffd42a;fill-opacity:1;stroke:none;stroke-width:1px;stroke-linecap:butt;stroke-linejoin:miter;stroke-opacity:1;font-family:SUMMERCAMP"
       d="M 322.62529,114.14157 L 325.9205,119.76657 L 336.44498,119.76657 C 337.30542,119.76662 338.02325,120.16186 338.59695,120.92282 C 339.21836,121.62535 339.5384,122.49415 339.53843,123.54782 L 339.53843,140.39157 C 339.5384,141.10467 339.38866,141.77304 339.10132,142.36032 L 353.82887,167.61032 C 356.53077,165.26975 357.89735,161.88425 357.89743,157.45407 C 357.89736,152.71237 356.31142,149.13547 353.15637,146.73532 C 356.35924,143.69128 357.96463,139.71519 357.96468,134.79782 L 357.96468,129.17282 C 357.96461,125.01654 356.73759,121.47486 354.29961,118.54782 C 351.9093,115.62089 349.03801,114.14163 345.69173,114.14157 L 322.62529,114.14157 z M 362.20138,119.32907 L 362.20138,161.32907 L 376.82805,119.32907 L 362.20138,119.32907 z "
       id="path2299" />
  </g>
</svg>
