<?xml version="1.0" encoding="UTF-8" standalone="no"?>
<!-- Created with Inkscape (http://www.inkscape.org/) -->
<svg
   xmlns:dc="http://purl.org/dc/elements/1.1/"
   xmlns:cc="http://web.resource.org/cc/"
   xmlns:rdf="http://www.w3.org/1999/02/22-rdf-syntax-ns#"
   xmlns:svg="http://www.w3.org/2000/svg"
   xmlns="http://www.w3.org/2000/svg"
   xmlns:xlink="http://www.w3.org/1999/xlink"
   xmlns:sodipodi="http://sodipodi.sourceforge.net/DTD/sodipodi-0.dtd"
   xmlns:inkscape="http://www.inkscape.org/namespaces/inkscape"
   id="svg2"
   sodipodi:version="0.32"
   inkscape:version="0.45"
   width="95"
   height="125"
   version="1.0"
   sodipodi:docbase="/var/www/daybreak/public/babyblue"
   sodipodi:docname="map2.gif.svg"
   inkscape:output_extension="org.inkscape.output.svg.inkscape"
   sodipodi:modified="TRUE">
  <metadata
     id="metadata7">
    <rdf:RDF>
      <cc:Work
         rdf:about="">
        <dc:format>image/svg+xml</dc:format>
        <dc:type
           rdf:resource="http://purl.org/dc/dcmitype/StillImage" />
      </cc:Work>
    </rdf:RDF>
  </metadata>
  <defs
     id="defs5">
    <filter
       inkscape:collect="always"
       id="filter3787">
      <feGaussianBlur
         inkscape:collect="always"
         stdDeviation="1.765996"
         id="feGaussianBlur3789" />
    </filter>
  </defs>
  <sodipodi:namedview
     inkscape:window-height="949"
     inkscape:window-width="1280"
     inkscape:pageshadow="2"
     inkscape:pageopacity="0.0"
     guidetolerance="10.0"
     gridtolerance="10.0"
     objecttolerance="10.0"
     borderopacity="1.0"
     bordercolor="#666666"
     pagecolor="#ffffff"
     id="base"
     inkscape:zoom="3.256"
     inkscape:cx="13.722359"
     inkscape:cy="61.435453"
     inkscape:window-x="0"
     inkscape:window-y="25"
     inkscape:current-layer="svg2" />
  <path
     style="fill:#000000;opacity:0.58;filter:url(#filter3787)"
     d="M 61.047374,24.661778 C 59.866279,24.71972 58.354692,24.926617 56.734874,25.255528 C 53.525172,25.907273 49.766125,26.464666 48.391124,26.474278 C 47.016124,26.48389 45.331201,26.929287 44.672374,27.474278 C 44.013545,28.019269 40.863542,28.87816 37.672374,29.380528 C 24.308264,31.484363 12.159544,34.143363 11.109874,35.193028 C 9.3556946,35.970788 5.5751086,35.764542 5.9223736,39.411778 C 5.9444536,39.619623 5.9582336,39.815569 5.9848736,40.036778 C 6.1527336,42.161651 6.4779936,44.581694 6.9223736,46.036778 C 6.9665336,46.18137 7.0007436,46.3351 7.0161236,46.505528 C 7.0468836,46.846384 7.0221736,47.21615 6.9536236,47.630528 C 6.9388536,47.719842 6.9099136,47.820172 6.8911236,47.911778 C 6.8880636,47.921713 6.8942736,47.933086 6.8911236,47.943028 C 6.5711536,48.952882 5.7861336,49.981581 4.4223736,51.255528 C 3.6241436,52.001181 2.9032036,52.819794 2.3598736,53.536778 C 1.6264036,53.451021 1.3549936,53.971874 1.4848736,54.974278 C 1.4306936,55.118013 1.3911236,55.249566 1.3911236,55.349278 C 1.3911236,55.690992 1.8924836,56.854871 2.6723736,58.443028 C 2.6773536,58.453164 2.6673736,58.464107 2.6723736,58.474278 C 3.4610436,60.078121 4.5382736,62.103506 5.7348736,64.193028 C 7.1484536,66.661437 8.3242836,68.752076 9.3911236,70.724278 C 9.5137536,70.950975 9.6163236,71.190438 9.7348736,71.411778 C 13.479764,78.653887 15.383294,83.484859 16.672374,88.818028 C 16.682374,88.861028 16.693664,88.899874 16.703624,88.943028 C 16.958374,90.00595 17.203324,91.094295 17.422374,92.224278 C 17.433104,92.278999 17.442904,92.325495 17.453624,92.380528 C 17.794534,94.138338 18.080754,95.700083 18.359874,97.068028 C 18.367434,97.104971 18.383604,97.156351 18.391124,97.193028 C 18.668034,98.545583 18.929414,99.741129 19.172374,100.75553 C 19.176954,100.7746 19.199054,100.79907 19.203624,100.81803 C 19.323374,101.31529 19.430894,101.76912 19.547374,102.19303 C 19.552374,102.21124 19.542374,102.23745 19.547374,102.25553 C 19.663674,102.67562 19.805984,103.0588 19.922374,103.41178 C 20.046374,103.78866 20.169574,104.13552 20.297374,104.44303 C 20.300804,104.45129 20.293934,104.46606 20.297374,104.47428 C 20.419384,104.76574 20.543354,105.02077 20.672374,105.25553 C 20.810054,105.50606 20.960264,105.71863 21.109874,105.91178 C 21.249834,106.09247 21.393524,106.24377 21.547374,106.38053 C 21.711334,106.52729 21.863654,106.65173 22.047374,106.75553 C 22.402694,106.95769 22.783364,107.08084 23.234874,107.16178 C 23.244974,107.16364 23.255964,107.15997 23.266124,107.16178 C 23.937504,107.27868 24.740118,107.28678 25.703624,107.28678 C 28.803395,107.28678 30.607186,107.86804 31.891124,109.28678 C 34.256614,111.90062 36.579607,111.82092 41.141124,108.94303 C 43.192694,107.64868 46.819587,105.61141 49.172374,104.41178 L 54.224125,100.64815 L 58.047374,104.25553 C 61.239439,105.66753 64.223073,106.32687 67.359874,106.19303 C 70.938788,106.05669 70.321933,106.35471 77.578624,103.44303 C 83.686839,100.70246 87.638576,97.468523 89.703624,93.286778 C 89.933074,92.82214 90.144743,92.369912 90.328624,91.880528 C 91.248029,89.43361 91.576985,86.644116 91.422374,83.474278 C 91.391452,82.84031 91.337399,82.203834 91.266124,81.536778 C 90.635302,75.632955 89.777337,72.315464 87.922374,70.005528 C 87.259367,69.106828 86.355279,68.456296 85.453624,67.818028 C 82.486768,65.932005 81.759524,65.11015 77.891124,62.818028 C 39.670094,55.134162 82.964478,80.433543 73.859874,57.411778 C 73.519874,56.526911 72.144915,52.186778 70.797374,47.786778 C 65.578651,30.746578 63.944593,25.776221 63.266124,24.943028 C 63.070802,24.703163 62.228469,24.603836 61.047374,24.661778 z "
     id="path2786"
     sodipodi:nodetypes="csssscccssssssccssssscsssssssssssssssssssssscccccssssccccssc"
     inkscape:export-filename="/var/www/daybreak/public/babyblue/map2.png"
     inkscape:export-xdpi="94.739998"
     inkscape:export-ydpi="94.739998" />
  <image
     xlink:href="map.gif"
     sodipodi:absref="/var/www/daybreak/public/babyblue/map.gif"
     width="95"
     height="125"
     id="image9"
     x="0"
     y="0"
     inkscape:export-filename="/var/www/daybreak/public/babyblue/map2.png"
     inkscape:export-xdpi="94.739998"
     inkscape:export-ydpi="94.739998" />
</svg>
