<?xml version="1.0" encoding="UTF-8" standalone="no"?>
<!-- Created with Inkscape (http://www.inkscape.org/) -->
<svg
   xmlns:dc="http://purl.org/dc/elements/1.1/"
   xmlns:cc="http://web.resource.org/cc/"
   xmlns:rdf="http://www.w3.org/1999/02/22-rdf-syntax-ns#"
   xmlns:svg="http://www.w3.org/2000/svg"
   xmlns="http://www.w3.org/2000/svg"
   xmlns:xlink="http://www.w3.org/1999/xlink"
   xmlns:sodipodi="http://sodipodi.sourceforge.net/DTD/sodipodi-0.dtd"
   xmlns:inkscape="http://www.inkscape.org/namespaces/inkscape"
   sodipodi:docname="photo.svg"
   sodipodi:docbase="/var/www/daybreak/public/design"
   inkscape:version="0.45"
   sodipodi:version="0.32"
   id="svg3335"
   height="222.30269"
   width="242.50922"
   inkscape:output_extension="org.inkscape.output.svg.inkscape"
   version="1.0"
   sodipodi:modified="true">
  <defs
     id="defs3">
    <linearGradient
       id="linearGradient4130"
       inkscape:collect="always">
      <stop
         id="stop4132"
         offset="0"
         style="stop-color:#ffffff;stop-opacity:1;" />
      <stop
         id="stop4134"
         offset="1"
         style="stop-color:#ffffff;stop-opacity:0;" />
    </linearGradient>
    <linearGradient
       id="linearGradient4118">
      <stop
         id="stop4120"
         offset="0"
         style="stop-color:#ffd99b;stop-opacity:1;" />
      <stop
         id="stop4122"
         offset="1.0000000"
         style="stop-color:#b2986c;stop-opacity:1.0000000;" />
    </linearGradient>
    <linearGradient
       id="linearGradient4105">
      <stop
         id="stop4107"
         offset="0.0000000"
         style="stop-color:#25a2ff;stop-opacity:1.0000000;" />
      <stop
         id="stop4109"
         offset="1.0000000"
         style="stop-color:#00659a;stop-opacity:1.0000000;" />
    </linearGradient>
    <linearGradient
       gradientUnits="userSpaceOnUse"
       y2="85.06852"
       x2="100.61058"
       y1="85.06852"
       x1="16.062044"
       id="linearGradient4111"
       xlink:href="#linearGradient4105"
       inkscape:collect="always" />
    <linearGradient
       y2="8.2969255"
       x2="35.60788"
       y1="113.85787"
       x1="73.640739"
       gradientUnits="userSpaceOnUse"
       id="linearGradient4114"
       xlink:href="#linearGradient4105"
       inkscape:collect="always" />
    <radialGradient
       gradientUnits="userSpaceOnUse"
       r="27.627054"
       fy="45.286964"
       fx="57.106434"
       cy="45.286964"
       cx="57.106434"
       id="radialGradient4124"
       xlink:href="#linearGradient4118"
       inkscape:collect="always" />
    <linearGradient
       gradientUnits="userSpaceOnUse"
       y2="96.615082"
       x2="71.071434"
       y1="30.543657"
       x1="9.574522"
       id="linearGradient4136"
       xlink:href="#linearGradient4130"
       inkscape:collect="always" />
    <linearGradient
       y2="8.2969255"
       x2="35.60788"
       y1="113.85787"
       x1="73.640739"
       gradientUnits="userSpaceOnUse"
       id="linearGradient4144"
       xlink:href="#linearGradient4105"
       inkscape:collect="always" />
    <linearGradient
       y2="96.615082"
       x2="71.071434"
       y1="30.543657"
       x1="9.574522"
       gradientUnits="userSpaceOnUse"
       id="linearGradient4146"
       xlink:href="#linearGradient4130"
       inkscape:collect="always" />
    <linearGradient
       y2="8.2969255"
       x2="35.60788"
       y1="113.85787"
       x1="73.640739"
       gradientUnits="userSpaceOnUse"
       id="linearGradient4160"
       xlink:href="#linearGradient4105"
       inkscape:collect="always" />
    <linearGradient
       y2="96.615082"
       x2="71.071434"
       y1="30.543657"
       x1="9.574522"
       gradientUnits="userSpaceOnUse"
       id="linearGradient4162"
       xlink:href="#linearGradient4130"
       inkscape:collect="always" />
    <radialGradient
       r="27.627054"
       fy="45.286964"
       fx="57.106434"
       cy="45.286964"
       cx="57.106434"
       gradientUnits="userSpaceOnUse"
       id="radialGradient4164"
       xlink:href="#linearGradient4118"
       inkscape:collect="always" />
    <linearGradient
       gradientTransform="translate(-84.0952,-4.477295)"
       y2="96.615082"
       x2="71.071434"
       y1="30.543657"
       x1="9.574522"
       gradientUnits="userSpaceOnUse"
       id="linearGradient4169"
       xlink:href="#linearGradient4130"
       inkscape:collect="always" />
    <linearGradient
       gradientTransform="translate(-84.0952,-4.477295)"
       y2="8.2969255"
       x2="35.60788"
       y1="113.85787"
       x1="73.640739"
       gradientUnits="userSpaceOnUse"
       id="linearGradient4172"
       xlink:href="#linearGradient4105"
       inkscape:collect="always" />
    <linearGradient
       inkscape:collect="always"
       xlink:href="#linearGradient4105"
       id="linearGradient3167"
       gradientUnits="userSpaceOnUse"
       gradientTransform="translate(6.060915,-4.04061)"
       x1="53.640739"
       y1="81.000732"
       x2="84.893593"
       y2="127.09025" />
    <linearGradient
       inkscape:collect="always"
       xlink:href="#linearGradient4130"
       id="linearGradient3169"
       gradientUnits="userSpaceOnUse"
       gradientTransform="translate(6.060915,-4.04061)"
       x1="9.574522"
       y1="30.543657"
       x2="71.071434"
       y2="96.615082" />
    <radialGradient
       inkscape:collect="always"
       xlink:href="#linearGradient4118"
       id="radialGradient3171"
       gradientUnits="userSpaceOnUse"
       cx="57.106434"
       cy="45.286964"
       fx="57.106434"
       fy="45.286964"
       r="27.627054" />
    <filter
       inkscape:collect="always"
       id="filter3236">
      <feGaussianBlur
         inkscape:collect="always"
         stdDeviation="2.0357812"
         id="feGaussianBlur3238" />
    </filter>
    <linearGradient
       inkscape:collect="always"
       xlink:href="#linearGradient4105"
       id="linearGradient3252"
       gradientUnits="userSpaceOnUse"
       gradientTransform="translate(6.060915,-4.04061)"
       x1="53.640739"
       y1="81.000732"
       x2="84.893593"
       y2="127.09025" />
    <linearGradient
       inkscape:collect="always"
       xlink:href="#linearGradient4130"
       id="linearGradient3254"
       gradientUnits="userSpaceOnUse"
       gradientTransform="translate(6.060915,-4.04061)"
       x1="9.574522"
       y1="30.543657"
       x2="71.071434"
       y2="96.615082" />
    <radialGradient
       inkscape:collect="always"
       xlink:href="#linearGradient4118"
       id="radialGradient3256"
       gradientUnits="userSpaceOnUse"
       cx="57.106434"
       cy="45.286964"
       fx="57.106434"
       fy="45.286964"
       r="27.627054" />
  </defs>
  <sodipodi:namedview
     inkscape:window-y="106"
     inkscape:window-x="167"
     inkscape:window-height="626"
     inkscape:window-width="910"
     inkscape:current-layer="layer1"
     inkscape:document-units="px"
     inkscape:cy="119.90677"
     inkscape:cx="139.92068"
     inkscape:zoom="1.4"
     inkscape:pageshadow="2"
     inkscape:pageopacity="0.0"
     borderopacity="1.0"
     bordercolor="#666666"
     pagecolor="#ffffff"
     id="base" />
  <metadata
     id="metadata4">
    <rdf:RDF>
      <cc:Work
         rdf:about="">
        <dc:format>image/svg+xml</dc:format>
        <dc:type
           rdf:resource="http://purl.org/dc/dcmitype/StillImage" />
      </cc:Work>
    </rdf:RDF>
  </metadata>
  <g
     id="layer1"
     inkscape:groupmode="layer"
     inkscape:label="Layer 1"
     transform="translate(-157.88161,52.894187)">
    <g
       id="g3240"
       transform="matrix(0.9930501,0.1176926,-0.1176926,0.9930501,8.7948874,-32.449306)"
       inkscape:export-filename="/home/mlanza/Desktop/babyblue/photo.png"
       inkscape:export-xdpi="25.98"
       inkscape:export-ydpi="25.98">
      <path
         style="opacity:0.43956042;fill:#000000;fill-opacity:1;fill-rule:nonzero;stroke:none;stroke-width:0.5;stroke-linecap:round;stroke-linejoin:round;stroke-miterlimit:4;stroke-dasharray:none;stroke-dashoffset:0;stroke-opacity:1;filter:url(#filter3236)"
         d="M 177.27233,-33.419643 C 175.61033,-33.419643 174.27233,-32.081643 174.27233,-30.419643 L 174.27233,154.29911 C 174.27233,155.96111 175.61033,157.29911 177.27233,157.29911 L 387.70983,157.29911 C 389.37183,157.29911 390.70985,155.96111 390.70983,154.29911 L 390.70983,-30.419643 C 390.70983,-32.081643 389.37185,-33.419643 387.70983,-33.419643 L 177.27233,-33.419643 z M 190.27233,-18.294643 L 375.45983,-18.294643 C 377.12185,-18.294643 378.45983,-16.956643 378.45983,-15.294643 L 378.45983,119.17411 C 378.45985,120.83611 377.12183,122.17411 375.45983,122.17411 L 190.27233,122.17411 C 188.61033,122.17411 187.27233,120.83611 187.27233,119.17411 L 187.27233,-15.294643 C 187.27233,-16.956643 188.61033,-18.294643 190.27233,-18.294643 z "
         id="path3208" />
      <g
         inkscape:export-ydpi="18.530001"
         inkscape:export-xdpi="18.530001"
         inkscape:export-filename="/home/mlanza/Desktop/babyblue/photo.png"
         id="g3176">
        <rect
           style="opacity:1;fill:#c8b7b7;fill-opacity:1;fill-rule:nonzero;stroke:#000000;stroke-width:0.55906796;stroke-linecap:round;stroke-linejoin:round;stroke-miterlimit:4;stroke-dasharray:none;stroke-dashoffset:0;stroke-opacity:1"
           id="rect3174"
           width="199.22665"
           height="141.36951"
           x="175.74382"
           y="-26.970467"
           rx="3.0000002"
           ry="3" />
        <g
           id="g3160"
           transform="matrix(1.1741569,0,0,1.1741569,204.26253,-16.326284)">
          <path
             style="fill:#000000;fill-opacity:0.29288701;stroke:none;stroke-width:3.23125005;stroke-linecap:round;stroke-linejoin:round;stroke-miterlimit:4;stroke-opacity:1"
             d="M 68.558242,8.805839 C 60.941054,8.6767932 53.580563,10.953161 49.026992,15.149589 C 44.741278,20.62578 36.156456,17.517149 31.870742,22.993339 C 36.235923,22.644124 44.56407,22.893394 44.558242,34.837089 C 44.393109,36.020805 44.183242,37.201875 44.183242,38.430839 C 44.183242,46.070874 47.552349,52.861194 52.808242,57.618339 C 37.160471,66.058052 30.261301,87.850195 29.558242,122.55584 C 29.558242,124.77183 31.342242,126.55584 33.558242,126.55584 L 106.87074,126.55584 C 109.08674,126.55584 110.87074,124.77183 110.87074,122.55584 C 110.35674,87.282722 103.49106,65.792389 87.714492,57.524589 C 92.897694,52.771456 96.214492,46.016989 96.214492,38.430839 C 96.214492,36.510739 95.98488,34.639037 95.589492,32.837089 C 96.015362,32.544693 96.454002,32.378448 96.870742,31.930839 C 94.638599,15.933815 81.253555,9.0209153 68.558242,8.805839 z "
             id="path4152" />
          <path
             style="fill:url(#linearGradient3252);fill-opacity:1;stroke:#070707;stroke-width:3.23125005;stroke-linecap:round;stroke-linejoin:round;stroke-miterlimit:4;stroke-opacity:1"
             d="M 105.05587,117.43401 C 105.05587,119.65001 103.27187,121.43401 101.05587,121.43401 L 27.738585,121.43401 C 25.522585,121.43401 23.738585,119.65001 23.738585,117.43401 C 24.664559,71.724607 36.323403,48.36483 64.58663,48.491099 C 92.849857,48.617368 104.38243,71.219531 105.05587,117.43401 z "
             id="rect3345"
             sodipodi:nodetypes="cccczc" />
          <path
             style="fill:url(#linearGradient3254);fill-opacity:1;fill-rule:evenodd;stroke:none;stroke-width:0.25pt;stroke-linecap:butt;stroke-linejoin:miter;stroke-opacity:1"
             d="M 26.7752,114.67367 C 40.703772,89.435578 87.846629,104.19748 90.346629,65.030818 C 86.418058,55.030818 76.060915,53.602247 68.560915,51.816533 C 30.346629,44.91177 26.060915,96.93558 26.7752,114.67367 z "
             id="path4128"
             sodipodi:nodetypes="cccc" />
          <path
             sodipodi:type="arc"
             style="fill:url(#radialGradient3256);fill-opacity:1;stroke:#070707;stroke-width:3.23125005;stroke-linecap:round;stroke-linejoin:round;stroke-miterlimit:4;stroke-dasharray:none;stroke-opacity:1"
             id="path4116"
             sodipodi:cx="63.892147"
             sodipodi:cy="53.501251"
             sodipodi:rx="26.011429"
             sodipodi:ry="26.011429"
             d="M 89.903576 53.501251 A 26.011429 26.011429 0 1 1  37.880718,53.501251 A 26.011429 26.011429 0 1 1  89.903576 53.501251 z"
             transform="translate(0.505076,-20.20305)" />
          <path
             style="fill:#000000;fill-opacity:1;fill-rule:evenodd;stroke:#000000;stroke-width:0.25pt;stroke-linecap:butt;stroke-linejoin:miter;stroke-opacity:1"
             d="M 43.203772,10.030818 C 38.918058,15.507009 30.346629,12.411771 26.060915,17.887961 C 30.5252,17.530818 39.185915,17.70939 38.784129,30.477247 C 44.453772,20.030818 48.918058,21.45939 52.846629,20.030818 C 56.418058,24.673675 61.775201,25.030819 65.34663,29.673676 C 64.751392,24.078438 62.727582,18.126057 71.418058,18.245104 C 77.013296,21.221295 84.632344,33.721295 91.060915,26.816533 C 87.489487,1.2212946 55.346629,-1.159658 43.203772,10.030818 z "
             id="path4126"
             sodipodi:nodetypes="cccccccc" />
        </g>
        <path
           style="opacity:1;fill:#ffffff;fill-opacity:1;fill-rule:nonzero;stroke:#000000;stroke-width:0.5;stroke-linecap:round;stroke-linejoin:round;stroke-miterlimit:4;stroke-dasharray:none;stroke-dashoffset:0;stroke-opacity:1"
           d="M 170.84375,-40.5625 C 169.18175,-40.5625 167.84375,-39.2245 167.84375,-37.5625 L 167.84375,147.15625 C 167.84375,148.81825 169.18175,150.15625 170.84375,150.15625 L 381.28125,150.15625 C 382.94325,150.15625 384.28127,148.81825 384.28125,147.15625 L 384.28125,-37.5625 C 384.28125,-39.2245 382.94327,-40.5625 381.28125,-40.5625 L 170.84375,-40.5625 z M 183.84375,-25.4375 L 369.03125,-25.4375 C 370.69327,-25.4375 372.03125,-24.0995 372.03125,-22.4375 L 372.03125,112.03125 C 372.03127,113.69325 370.69325,115.03125 369.03125,115.03125 L 183.84375,115.03125 C 182.18175,115.03125 180.84375,113.69325 180.84375,112.03125 L 180.84375,-22.4375 C 180.84375,-24.0995 182.18175,-25.4375 183.84375,-25.4375 z "
           id="rect2185" />
      </g>
    </g>
  </g>
</svg>
